<mxfile host="app.diagrams.net" agent="Mozilla/5.0 (Windows NT 10.0; Win64; x64) AppleWebKit/537.36 (KHTML, like Gecko) Chrome/136.0.0.0 Safari/537.36" version="26.2.14">
  <diagram name="‫עמוד-1‬" id="5CMt0brMtxHgMXFFOplU">
    <mxGraphModel dx="1289" dy="707" grid="1" gridSize="10" guides="1" tooltips="1" connect="1" arrows="1" fold="1" page="1" pageScale="1" pageWidth="827" pageHeight="1169" math="0" shadow="0">
      <root>
        <mxCell id="0" />
        <mxCell id="1" parent="0" />
        <mxCell id="lOGeXzKiBtCNW5fYdvos-56" value="Private subnet" style="points=[[0,0],[0.25,0],[0.5,0],[0.75,0],[1,0],[1,0.25],[1,0.5],[1,0.75],[1,1],[0.75,1],[0.5,1],[0.25,1],[0,1],[0,0.75],[0,0.5],[0,0.25]];outlineConnect=0;gradientColor=none;html=1;whiteSpace=wrap;fontSize=12;fontStyle=0;container=1;pointerEvents=0;collapsible=0;recursiveResize=0;shape=mxgraph.aws4.group;grIcon=mxgraph.aws4.group_security_group;grStroke=0;strokeColor=#00A4A6;fillColor=#E6F6F7;verticalAlign=top;align=left;spacingLeft=30;fontColor=#147EBA;dashed=0;" vertex="1" parent="1">
          <mxGeometry x="690" y="339" width="110" height="120" as="geometry" />
        </mxCell>
        <mxCell id="lOGeXzKiBtCNW5fYdvos-11" value="VPC" style="sketch=0;outlineConnect=0;gradientColor=none;html=1;whiteSpace=wrap;fontSize=12;fontStyle=0;shape=mxgraph.aws4.group;grIcon=mxgraph.aws4.group_vpc;strokeColor=#879196;fillColor=none;verticalAlign=top;align=left;spacingLeft=30;fontColor=#879196;dashed=0;" vertex="1" parent="1">
          <mxGeometry x="120" y="240" width="680" height="320" as="geometry" />
        </mxCell>
        <mxCell id="lOGeXzKiBtCNW5fYdvos-1" value="AWS Cloud" style="points=[[0,0],[0.25,0],[0.5,0],[0.75,0],[1,0],[1,0.25],[1,0.5],[1,0.75],[1,1],[0.75,1],[0.5,1],[0.25,1],[0,1],[0,0.75],[0,0.5],[0,0.25]];outlineConnect=0;gradientColor=none;html=1;whiteSpace=wrap;fontSize=12;fontStyle=0;container=1;pointerEvents=0;collapsible=0;recursiveResize=0;shape=mxgraph.aws4.group;grIcon=mxgraph.aws4.group_aws_cloud;strokeColor=#232F3E;fillColor=none;verticalAlign=top;align=left;spacingLeft=30;fontColor=#232F3E;dashed=0;" vertex="1" parent="1">
          <mxGeometry x="120" y="40" width="680" height="200" as="geometry" />
        </mxCell>
        <mxCell id="lOGeXzKiBtCNW5fYdvos-3" value="AWS Cloud9" style="sketch=0;points=[[0,0,0],[0.25,0,0],[0.5,0,0],[0.75,0,0],[1,0,0],[0,1,0],[0.25,1,0],[0.5,1,0],[0.75,1,0],[1,1,0],[0,0.25,0],[0,0.5,0],[0,0.75,0],[1,0.25,0],[1,0.5,0],[1,0.75,0]];outlineConnect=0;fontColor=#232F3E;fillColor=#C925D1;strokeColor=#ffffff;dashed=0;verticalLabelPosition=bottom;verticalAlign=top;align=center;html=1;fontSize=12;fontStyle=0;aspect=fixed;shape=mxgraph.aws4.resourceIcon;resIcon=mxgraph.aws4.cloud9;" vertex="1" parent="lOGeXzKiBtCNW5fYdvos-1">
          <mxGeometry x="70" y="70" width="54" height="54" as="geometry" />
        </mxCell>
        <mxCell id="lOGeXzKiBtCNW5fYdvos-4" value="AWS CodeCommit" style="sketch=0;points=[[0,0,0],[0.25,0,0],[0.5,0,0],[0.75,0,0],[1,0,0],[0,1,0],[0.25,1,0],[0.5,1,0],[0.75,1,0],[1,1,0],[0,0.25,0],[0,0.5,0],[0,0.75,0],[1,0.25,0],[1,0.5,0],[1,0.75,0]];outlineConnect=0;fontColor=#232F3E;fillColor=#C925D1;strokeColor=#ffffff;dashed=0;verticalLabelPosition=bottom;verticalAlign=top;align=center;html=1;fontSize=12;fontStyle=0;aspect=fixed;shape=mxgraph.aws4.resourceIcon;resIcon=mxgraph.aws4.codecommit;" vertex="1" parent="lOGeXzKiBtCNW5fYdvos-1">
          <mxGeometry x="170" y="70.38" width="54.75" height="54.75" as="geometry" />
        </mxCell>
        <mxCell id="lOGeXzKiBtCNW5fYdvos-6" value="AWS ECR" style="sketch=0;points=[[0,0,0],[0.25,0,0],[0.5,0,0],[0.75,0,0],[1,0,0],[0,1,0],[0.25,1,0],[0.5,1,0],[0.75,1,0],[1,1,0],[0,0.25,0],[0,0.5,0],[0,0.75,0],[1,0.25,0],[1,0.5,0],[1,0.75,0]];outlineConnect=0;fontColor=#232F3E;fillColor=#ED7100;strokeColor=#ffffff;dashed=0;verticalLabelPosition=bottom;verticalAlign=top;align=center;html=1;fontSize=12;fontStyle=0;aspect=fixed;shape=mxgraph.aws4.resourceIcon;resIcon=mxgraph.aws4.ecr;" vertex="1" parent="lOGeXzKiBtCNW5fYdvos-1">
          <mxGeometry x="294" y="67.5" width="59.5" height="59.5" as="geometry" />
        </mxCell>
        <mxCell id="lOGeXzKiBtCNW5fYdvos-8" value="AWS CodeDeploy" style="sketch=0;points=[[0,0,0],[0.25,0,0],[0.5,0,0],[0.75,0,0],[1,0,0],[0,1,0],[0.25,1,0],[0.5,1,0],[0.75,1,0],[1,1,0],[0,0.25,0],[0,0.5,0],[0,0.75,0],[1,0.25,0],[1,0.5,0],[1,0.75,0]];outlineConnect=0;fontColor=#232F3E;fillColor=#C925D1;strokeColor=#ffffff;dashed=0;verticalLabelPosition=bottom;verticalAlign=top;align=center;html=1;fontSize=12;fontStyle=0;aspect=fixed;shape=mxgraph.aws4.resourceIcon;resIcon=mxgraph.aws4.codedeploy;" vertex="1" parent="lOGeXzKiBtCNW5fYdvos-1">
          <mxGeometry x="548.5" y="68" width="59.5" height="59.5" as="geometry" />
        </mxCell>
        <mxCell id="lOGeXzKiBtCNW5fYdvos-7" value="AWS CodePipeline" style="sketch=0;points=[[0,0,0],[0.25,0,0],[0.5,0,0],[0.75,0,0],[1,0,0],[0,1,0],[0.25,1,0],[0.5,1,0],[0.75,1,0],[1,1,0],[0,0.25,0],[0,0.5,0],[0,0.75,0],[1,0.25,0],[1,0.5,0],[1,0.75,0]];outlineConnect=0;fontColor=#232F3E;fillColor=#C925D1;strokeColor=#ffffff;dashed=0;verticalLabelPosition=bottom;verticalAlign=top;align=center;html=1;fontSize=12;fontStyle=0;aspect=fixed;shape=mxgraph.aws4.resourceIcon;resIcon=mxgraph.aws4.codepipeline;" vertex="1" parent="lOGeXzKiBtCNW5fYdvos-1">
          <mxGeometry x="420" y="68.76" width="58" height="58" as="geometry" />
        </mxCell>
        <mxCell id="lOGeXzKiBtCNW5fYdvos-40" style="edgeStyle=orthogonalEdgeStyle;rounded=0;orthogonalLoop=1;jettySize=auto;html=1;entryX=0;entryY=0.5;entryDx=0;entryDy=0;entryPerimeter=0;" edge="1" parent="lOGeXzKiBtCNW5fYdvos-1" source="lOGeXzKiBtCNW5fYdvos-3" target="lOGeXzKiBtCNW5fYdvos-4">
          <mxGeometry relative="1" as="geometry" />
        </mxCell>
        <mxCell id="lOGeXzKiBtCNW5fYdvos-41" style="edgeStyle=orthogonalEdgeStyle;rounded=0;orthogonalLoop=1;jettySize=auto;html=1;entryX=0;entryY=0.5;entryDx=0;entryDy=0;entryPerimeter=0;" edge="1" parent="lOGeXzKiBtCNW5fYdvos-1" source="lOGeXzKiBtCNW5fYdvos-4" target="lOGeXzKiBtCNW5fYdvos-6">
          <mxGeometry relative="1" as="geometry" />
        </mxCell>
        <mxCell id="lOGeXzKiBtCNW5fYdvos-46" style="edgeStyle=orthogonalEdgeStyle;rounded=0;orthogonalLoop=1;jettySize=auto;html=1;entryX=0;entryY=0.5;entryDx=0;entryDy=0;entryPerimeter=0;" edge="1" parent="lOGeXzKiBtCNW5fYdvos-1" source="lOGeXzKiBtCNW5fYdvos-6" target="lOGeXzKiBtCNW5fYdvos-7">
          <mxGeometry relative="1" as="geometry" />
        </mxCell>
        <mxCell id="lOGeXzKiBtCNW5fYdvos-47" style="edgeStyle=orthogonalEdgeStyle;rounded=0;orthogonalLoop=1;jettySize=auto;html=1;entryX=0;entryY=0.5;entryDx=0;entryDy=0;entryPerimeter=0;" edge="1" parent="lOGeXzKiBtCNW5fYdvos-1" source="lOGeXzKiBtCNW5fYdvos-7" target="lOGeXzKiBtCNW5fYdvos-8">
          <mxGeometry relative="1" as="geometry" />
        </mxCell>
        <mxCell id="lOGeXzKiBtCNW5fYdvos-2" value="Dev" style="sketch=0;outlineConnect=0;fontColor=#232F3E;gradientColor=none;fillColor=#232F3D;strokeColor=none;dashed=0;verticalLabelPosition=bottom;verticalAlign=top;align=center;html=1;fontSize=12;fontStyle=0;aspect=fixed;pointerEvents=1;shape=mxgraph.aws4.user;" vertex="1" parent="1">
          <mxGeometry x="20" y="100" width="48" height="48" as="geometry" />
        </mxCell>
        <mxCell id="lOGeXzKiBtCNW5fYdvos-9" value="User" style="sketch=0;outlineConnect=0;fontColor=#232F3E;gradientColor=none;fillColor=#232F3D;strokeColor=none;dashed=0;verticalLabelPosition=bottom;verticalAlign=top;align=center;html=1;fontSize=12;fontStyle=0;aspect=fixed;pointerEvents=1;shape=mxgraph.aws4.user;" vertex="1" parent="1">
          <mxGeometry x="20" y="374" width="48" height="48" as="geometry" />
        </mxCell>
        <mxCell id="lOGeXzKiBtCNW5fYdvos-20" style="edgeStyle=orthogonalEdgeStyle;rounded=0;orthogonalLoop=1;jettySize=auto;html=1;entryX=0;entryY=0.5;entryDx=0;entryDy=0;" edge="1" parent="1" source="lOGeXzKiBtCNW5fYdvos-17" target="lOGeXzKiBtCNW5fYdvos-19">
          <mxGeometry relative="1" as="geometry" />
        </mxCell>
        <mxCell id="lOGeXzKiBtCNW5fYdvos-22" style="edgeStyle=orthogonalEdgeStyle;rounded=0;orthogonalLoop=1;jettySize=auto;html=1;entryX=0;entryY=0.5;entryDx=0;entryDy=0;" edge="1" parent="1" source="lOGeXzKiBtCNW5fYdvos-17" target="lOGeXzKiBtCNW5fYdvos-21">
          <mxGeometry relative="1" as="geometry" />
        </mxCell>
        <mxCell id="lOGeXzKiBtCNW5fYdvos-17" value="ALB" style="outlineConnect=0;dashed=0;verticalLabelPosition=bottom;verticalAlign=top;align=center;html=1;shape=mxgraph.aws3.application_load_balancer;fillColor=#F58536;gradientColor=none;" vertex="1" parent="1">
          <mxGeometry x="139.5" y="370" width="59" height="56" as="geometry" />
        </mxCell>
        <mxCell id="lOGeXzKiBtCNW5fYdvos-28" style="edgeStyle=orthogonalEdgeStyle;rounded=0;orthogonalLoop=1;jettySize=auto;html=1;entryX=0.5;entryY=1;entryDx=0;entryDy=0;" edge="1" parent="1" source="lOGeXzKiBtCNW5fYdvos-19" target="lOGeXzKiBtCNW5fYdvos-26">
          <mxGeometry relative="1" as="geometry" />
        </mxCell>
        <mxCell id="lOGeXzKiBtCNW5fYdvos-29" style="edgeStyle=orthogonalEdgeStyle;rounded=0;orthogonalLoop=1;jettySize=auto;html=1;entryX=0.5;entryY=0;entryDx=0;entryDy=0;" edge="1" parent="1" source="lOGeXzKiBtCNW5fYdvos-19" target="lOGeXzKiBtCNW5fYdvos-25">
          <mxGeometry relative="1" as="geometry" />
        </mxCell>
        <mxCell id="lOGeXzKiBtCNW5fYdvos-19" value="HTTP 80 Listener Rule" style="rounded=0;whiteSpace=wrap;html=1;" vertex="1" parent="1">
          <mxGeometry x="249.5" y="340" width="150" height="20" as="geometry" />
        </mxCell>
        <mxCell id="lOGeXzKiBtCNW5fYdvos-33" style="edgeStyle=orthogonalEdgeStyle;rounded=0;orthogonalLoop=1;jettySize=auto;html=1;entryX=0.5;entryY=0;entryDx=0;entryDy=0;" edge="1" parent="1" source="lOGeXzKiBtCNW5fYdvos-21" target="lOGeXzKiBtCNW5fYdvos-31">
          <mxGeometry relative="1" as="geometry" />
        </mxCell>
        <mxCell id="lOGeXzKiBtCNW5fYdvos-34" style="edgeStyle=orthogonalEdgeStyle;rounded=0;orthogonalLoop=1;jettySize=auto;html=1;entryX=0.5;entryY=1;entryDx=0;entryDy=0;" edge="1" parent="1" source="lOGeXzKiBtCNW5fYdvos-21" target="lOGeXzKiBtCNW5fYdvos-32">
          <mxGeometry relative="1" as="geometry" />
        </mxCell>
        <mxCell id="lOGeXzKiBtCNW5fYdvos-21" value="HTTP 8080 Listener Rule" style="rounded=0;whiteSpace=wrap;html=1;" vertex="1" parent="1">
          <mxGeometry x="249.5" y="440" width="150" height="20" as="geometry" />
        </mxCell>
        <mxCell id="lOGeXzKiBtCNW5fYdvos-25" value="Employee TG1" style="rounded=0;whiteSpace=wrap;html=1;fillColor=#dae8fc;strokeColor=#6c8ebf;" vertex="1" parent="1">
          <mxGeometry x="449.5" y="280" width="90" height="30" as="geometry" />
        </mxCell>
        <mxCell id="lOGeXzKiBtCNW5fYdvos-26" value="Customer TG1" style="rounded=0;whiteSpace=wrap;html=1;fillColor=#dae8fc;strokeColor=#6c8ebf;" vertex="1" parent="1">
          <mxGeometry x="449.5" y="330" width="90" height="30" as="geometry" />
        </mxCell>
        <mxCell id="lOGeXzKiBtCNW5fYdvos-38" style="edgeStyle=orthogonalEdgeStyle;rounded=0;orthogonalLoop=1;jettySize=auto;html=1;" edge="1" parent="1" source="lOGeXzKiBtCNW5fYdvos-31" target="lOGeXzKiBtCNW5fYdvos-35">
          <mxGeometry relative="1" as="geometry" />
        </mxCell>
        <mxCell id="lOGeXzKiBtCNW5fYdvos-31" value="Employee TG2" style="rounded=0;whiteSpace=wrap;html=1;fillColor=#d5e8d4;strokeColor=#82b366;" vertex="1" parent="1">
          <mxGeometry x="449.5" y="440" width="90" height="30" as="geometry" />
        </mxCell>
        <mxCell id="lOGeXzKiBtCNW5fYdvos-39" style="edgeStyle=orthogonalEdgeStyle;rounded=0;orthogonalLoop=1;jettySize=auto;html=1;" edge="1" parent="1" source="lOGeXzKiBtCNW5fYdvos-32" target="lOGeXzKiBtCNW5fYdvos-35">
          <mxGeometry relative="1" as="geometry" />
        </mxCell>
        <mxCell id="lOGeXzKiBtCNW5fYdvos-32" value="Customer TG2" style="rounded=0;whiteSpace=wrap;html=1;fillColor=#d5e8d4;strokeColor=#82b366;" vertex="1" parent="1">
          <mxGeometry x="449.5" y="490" width="90" height="30" as="geometry" />
        </mxCell>
        <mxCell id="lOGeXzKiBtCNW5fYdvos-35" value="AWS ECS" style="sketch=0;points=[[0,0,0],[0.25,0,0],[0.5,0,0],[0.75,0,0],[1,0,0],[0,1,0],[0.25,1,0],[0.5,1,0],[0.75,1,0],[1,1,0],[0,0.25,0],[0,0.5,0],[0,0.75,0],[1,0.25,0],[1,0.5,0],[1,0.75,0]];outlineConnect=0;fontColor=#232F3E;fillColor=#ED7100;strokeColor=#ffffff;dashed=0;verticalLabelPosition=bottom;verticalAlign=top;align=center;html=1;fontSize=12;fontStyle=0;aspect=fixed;shape=mxgraph.aws4.resourceIcon;resIcon=mxgraph.aws4.ecs;" vertex="1" parent="1">
          <mxGeometry x="609.5" y="370" width="58" height="58" as="geometry" />
        </mxCell>
        <mxCell id="lOGeXzKiBtCNW5fYdvos-36" style="edgeStyle=orthogonalEdgeStyle;rounded=0;orthogonalLoop=1;jettySize=auto;html=1;entryX=0.5;entryY=0;entryDx=0;entryDy=0;entryPerimeter=0;" edge="1" parent="1" source="lOGeXzKiBtCNW5fYdvos-25" target="lOGeXzKiBtCNW5fYdvos-35">
          <mxGeometry relative="1" as="geometry" />
        </mxCell>
        <mxCell id="lOGeXzKiBtCNW5fYdvos-37" style="edgeStyle=orthogonalEdgeStyle;rounded=0;orthogonalLoop=1;jettySize=auto;html=1;entryX=0.5;entryY=0;entryDx=0;entryDy=0;entryPerimeter=0;" edge="1" parent="1" source="lOGeXzKiBtCNW5fYdvos-26" target="lOGeXzKiBtCNW5fYdvos-35">
          <mxGeometry relative="1" as="geometry" />
        </mxCell>
        <mxCell id="lOGeXzKiBtCNW5fYdvos-51" style="edgeStyle=orthogonalEdgeStyle;rounded=0;orthogonalLoop=1;jettySize=auto;html=1;entryX=0;entryY=0.5;entryDx=0;entryDy=0;entryPerimeter=0;" edge="1" parent="1" source="lOGeXzKiBtCNW5fYdvos-35" target="lOGeXzKiBtCNW5fYdvos-49">
          <mxGeometry relative="1" as="geometry" />
        </mxCell>
        <mxCell id="lOGeXzKiBtCNW5fYdvos-53" style="edgeStyle=orthogonalEdgeStyle;rounded=0;orthogonalLoop=1;jettySize=auto;html=1;entryX=0.5;entryY=0;entryDx=0;entryDy=0;entryPerimeter=0;" edge="1" parent="1" source="lOGeXzKiBtCNW5fYdvos-8" target="lOGeXzKiBtCNW5fYdvos-35">
          <mxGeometry relative="1" as="geometry" />
        </mxCell>
        <mxCell id="lOGeXzKiBtCNW5fYdvos-49" value="AWS RDS" style="sketch=0;points=[[0,0,0],[0.25,0,0],[0.5,0,0],[0.75,0,0],[1,0,0],[0,1,0],[0.25,1,0],[0.5,1,0],[0.75,1,0],[1,1,0],[0,0.25,0],[0,0.5,0],[0,0.75,0],[1,0.25,0],[1,0.5,0],[1,0.75,0]];outlineConnect=0;fontColor=#232F3E;fillColor=#C925D1;strokeColor=#ffffff;dashed=0;verticalLabelPosition=bottom;verticalAlign=top;align=center;html=1;fontSize=12;fontStyle=0;aspect=fixed;shape=mxgraph.aws4.resourceIcon;resIcon=mxgraph.aws4.rds;" vertex="1" parent="1">
          <mxGeometry x="719.5" y="368" width="61" height="61" as="geometry" />
        </mxCell>
        <mxCell id="lOGeXzKiBtCNW5fYdvos-61" value="/admin" style="text;html=1;align=center;verticalAlign=middle;whiteSpace=wrap;rounded=0;" vertex="1" parent="1">
          <mxGeometry x="360" y="300" width="60" height="30" as="geometry" />
        </mxCell>
        <mxCell id="lOGeXzKiBtCNW5fYdvos-62" value="/admin/suppliers" style="text;html=1;align=center;verticalAlign=middle;whiteSpace=wrap;rounded=0;" vertex="1" parent="1">
          <mxGeometry x="310" y="398" width="89.5" height="30" as="geometry" />
        </mxCell>
        <mxCell id="lOGeXzKiBtCNW5fYdvos-63" style="edgeStyle=orthogonalEdgeStyle;rounded=0;orthogonalLoop=1;jettySize=auto;html=1;entryX=0;entryY=0.5;entryDx=0;entryDy=0;entryPerimeter=0;" edge="1" parent="1" source="lOGeXzKiBtCNW5fYdvos-9" target="lOGeXzKiBtCNW5fYdvos-17">
          <mxGeometry relative="1" as="geometry" />
        </mxCell>
        <mxCell id="lOGeXzKiBtCNW5fYdvos-64" style="edgeStyle=orthogonalEdgeStyle;rounded=0;orthogonalLoop=1;jettySize=auto;html=1;entryX=0;entryY=0.75;entryDx=0;entryDy=0;entryPerimeter=0;" edge="1" parent="1" source="lOGeXzKiBtCNW5fYdvos-2" target="lOGeXzKiBtCNW5fYdvos-3">
          <mxGeometry relative="1" as="geometry" />
        </mxCell>
      </root>
    </mxGraphModel>
  </diagram>
</mxfile>
